# xmcd CD database file
#
# Track frame offsets:
#	150
#	17290
#	35385
#	52257
#
# Disc length: 936 seconds
#
# Revision: 0
# Processed by: cddbd v1.5.1PL0 Copyright (c) Steve Scherf et al.
# Submitted via: CDex 1.51
#
DISCID=2803a604
DTITLE=とんねるず - がじゃいも
DYEAR=1993
DGENRE=JPop
TTITLE0=がじゃいも
TTITLE1=トロロンのテーマ
TTITLE2=がじゃいも（オリジナル・カラオケ）
TTITLE3=トロロンのテーマ（オリジナル・カラオケ）
EXTD=YEAR: 1993
EXTT0=
EXTT1=
EXTT2=
EXTT3=
PLAYORDER=
